<svg width="1920" height="1504" viewBox="0 0 1920 1504" fill="none" xmlns="http://www.w3.org/2000/svg">
<g clip-path="url(#clip0_4963_888)">
<path d="M1822.35 7.2265C1863.89 -18.0206 1900.17 -39.1492 1900.17 -39.1492M1549.19 230.079C1541.65 238.87 1534.51 247.656 1527.89 256.355M1672.23 184.293C1672.23 184.293 1672.22 184.261 1672.2 184.189C1671.88 182.819 1668.58 168.347 1670.4 147.978C1671.69 133.57 1675.53 116.214 1684.81 98.4722L1684.81 98.4616C1684.81 98.4616 1684.81 98.4616 1684.82 98.4593L1684.82 98.4487L1684.83 98.4464C1684.83 98.4464 1684.83 98.4464 1684.82 98.4358M1684.16 98.4501L1684.16 98.461L1684.17 98.4587M1685.39 103.081C1685.39 103.081 1678.95 136.36 1720.48 149.22M1670.89 147.851C1654.5 156.76 1647.55 170.643 1645.61 175.234M1583.84 276.105C1595.61 279.746 1611.44 279.671 1632.5 271.271M1655.49 191.155C1654.01 186.769 1651.28 180.578 1646.48 174.884C1640.31 167.557 1630.72 161.061 1615.99 160.305C1609 159.941 1600.86 160.868 1591.37 163.61C1549.17 175.805 1545.73 210.021 1548.36 230.659C1549.33 238.161 1551.09 243.867 1552.08 246.078C1553.23 248.634 1555.88 254.214 1560.71 259.964M1480.67 293.867C1470.39 312.021 1464.99 336.933 1475.34 362.051C1490.93 399.915 1522.95 406.353 1556.08 395.799C1589.22 385.246 1606.59 342.347 1602.34 316.949C1600.09 303.47 1594.99 287.421 1584.89 275.479C1579.2 268.742 1571.91 263.315 1562.64 260.379C1557.37 258.707 1551.45 257.852 1544.83 258.013C1538.03 258.182 1532.2 258.728 1527.2 259.52M1476.35 360.208C1455.39 386.032 1428.09 382.897 1410.52 368.133C1405.5 363.915 1401.27 358.737 1398.22 353.021C1394.67 346.348 1392.58 339.435 1391.66 332.602C1389.02 313.144 1395.83 294.403 1404.87 284.032C1413.57 274.06 1429.22 270.624 1437.52 269.465M1397.96 333.963C1397.96 333.963 1387.22 328.091 1385.08 336.926C1382.94 345.761 1392.82 349.352 1395.51 358.014C1398.2 366.676 1396.03 378.416 1400.87 380.731C1405.71 383.035 1412.49 379.58 1411.34 367.841M1802.23 18.9476C1802.23 18.9476 1777.96 33.2009 1785.43 75.575C1792.9 117.96 1822.25 128.588 1822.25 128.588C1843.67 98.1513 1841.3 65.2004 1837.27 38.4483C1835.06 23.7899 1828.02 13.3145 1821.34 8.29629M1821.34 8.29629C1820.47 7.64271 1819.61 7.08612 1818.78 6.62195C1814.26 4.1383 1811.57 5.67945 1808.5 7.74455C1799.99 13.4758 1806.35 20.5813 1816.67 16.1751C1818.82 15.2622 1821.39 12.2158 1821.34 8.29629ZM1821.34 8.29629C1821.35 7.3419 1821.24 6.31569 1821.02 5.23875C1819.36 -3.07261 1811.06 -14.7034 1788.81 -25.3818C1751.92 -43.084 1706.38 -37.6797 1706.38 -37.6797C1706.38 -37.6797 1730.45 -2.62874 1751.89 18.2887M1751.89 18.2887C1766.98 14.5671 1779.47 14.9922 1784.45 15.4745C1794.93 16.493 1796.85 27.3838 1777.96 33.2009C1771.83 35.0847 1762.17 28.3026 1751.89 18.2887ZM1751.89 18.2887C1735.18 22.4069 1715.28 31.62 1698.87 51.4719C1698.87 51.4719 1737.65 58.1725 1765.32 41.504C1749.21 52.0654 1720 70.1169 1710.02 77.7198C1702.04 83.8004 1692.86 91.053 1682.88 99.2493C1682.88 99.2598 1682.88 99.2598 1682.88 99.2598L1682.87 99.2621C1682.86 99.2644 1682.86 99.2644 1682.86 99.2644L1682.86 99.2749M1634.26 142.223C1627.96 147.946 1621.58 153.837 1615.21 159.869M1670.78 114.743C1670.78 114.743 1650.53 136.15 1618.42 147.146C1586.31 158.143 1545.62 157.389 1545.62 157.389C1545.62 157.389 1544.79 135.804 1583.99 101.295C1623.19 66.7859 1663.08 86.6913 1669.98 92.3724C1676.88 98.0558 1675.69 104.018 1663.26 105.998C1650.84 107.979 1614.64 72.2269 1606.07 47.4593C1596.75 20.5143 1596.21 -8.46795 1596.21 -8.46795C1596.21 -8.46795 1634.21 9.02716 1664.05 41.1485C1693.9 73.2699 1681.36 94.8982 1681.36 94.8982L1681.35 94.8899M1616.83 75.7551C1616.83 75.7551 1589.93 65.1215 1579.9 67.502C1579.9 67.502 1547.06 -4.79155 1455.43 55.3991C1455.43 55.3991 1474.31 87.4399 1514.67 86.8167C1555.02 86.1935 1570.24 66.9284 1570.24 66.9284C1570.24 66.9284 1494.14 65.1663 1487.61 55.73M1657 73.1775C1657 73.1775 1631.45 37.5662 1627.32 32.9317C1624.73 30.0281 1612 33.3706 1621.16 46.7695C1631.36 61.6946 1650.41 55.8382 1650.41 55.8382M1646.67 105.12C1646.67 105.12 1584.68 117.589 1572.67 136.18M1599.45 101.071C1599.45 101.071 1624.98 101.554 1636.67 114.909M1725.52 37.1408C1725.52 37.1408 1740.19 40.4987 1753.3 37.7811C1766.41 35.0636 1766.41 35.0636 1766.41 35.0636M1792.64 13.0982C1792.64 13.0982 1767.28 -20.5622 1743.86 -19.4026M1813.81 30.7874C1813.81 30.7874 1808 60.8629 1812.86 83.0603C1817.72 105.258 1805.04 101.797 1802.54 87.6888C1800.04 73.5811 1815.99 64.0198 1815.99 64.0198M1801.54 32.4009C1801.54 32.4009 1814.85 37.6037 1818.59 48.413M1702.99 183.726C1702.99 183.726 1708.25 147.416 1750.79 138.36C1787.37 130.576 1806.22 175.855 1800.29 196.06C1796.76 208.102 1785.95 237.175 1739.31 240.182M1500.28 48.1871C1500.28 48.1871 1524.75 50.8479 1533.23 69.7365M1779.25 -10.3248C1779.25 -10.3248 1760.94 0.868363 1746.2 -7.11034M1676.01 184.767C1669.35 185.711 1660.92 189.419 1655.38 193.036C1630.62 210.531 1619.57 242.702 1631.72 272.202C1635.04 280.253 1641.04 290.889 1648.45 295.952C1691.07 325.105 1731.23 284.325 1734.67 271.696C1736.16 266.198 1741.67 251.889 1739.17 231.593C1739.17 231.593 1735.91 207.045 1716.5 193.179C1697.53 179.615 1676.01 184.767 1676.01 184.767ZM1528.32 255.243C1528.32 255.243 1527.72 256.059 1526.6 257.443C1502.45 263.015 1498.04 270.241 1498.04 270.241C1491.74 275.116 1485.29 282.574 1480.09 291.777C1473.72 293.203 1467.16 293.064 1460.74 290.467C1449.03 285.733 1441.22 277.97 1436.06 269.518C1427.07 254.821 1425.79 242.752 1426.71 231.421C1427.89 216.793 1438.79 206.573 1438.79 206.573C1454.04 188.032 1489.09 176.308 1512.61 197.064C1536.13 217.813 1528.32 255.243 1528.32 255.243ZM1448.8 234.371C1452.04 231.929 1451.77 213.556 1460.85 217.041C1469.92 220.527 1470.73 234.17 1467.24 236.431C1463.74 238.692 1456.34 242.097 1455.37 239.169C1454.4 236.242 1456.49 233.813 1457.87 235.201C1459.25 236.577 1461.96 255.843 1457.19 258.639C1452.42 261.436 1440.95 249.596 1444.38 248.29C1447.82 246.983 1448.42 247.808 1448.79 249.911C1449.16 252.013 1441.46 261.547 1436.1 254.533C1430.75 247.519 1435.78 237.145 1440.2 237.58C1444.64 238 1448.8 234.371 1448.8 234.371ZM1678.94 263.287C1681.65 262.621 1680.31 245.869 1688.83 247.569C1697.34 249.268 1698.99 261.207 1697.07 264.547C1695.15 267.887 1690.48 267.274 1691.27 263.956C1692.05 260.639 1712.32 250.414 1714.12 259.171C1715.93 267.928 1709.89 278.98 1702.6 278.972C1695.3 278.965 1693.81 274.47 1690.69 276.158C1687.58 277.846 1694.24 293.217 1683.08 292.89C1671.92 292.563 1671.01 273.208 1673.92 272.897C1676.83 272.597 1678.31 273.216 1678.58 276.05C1678.86 278.884 1674.4 285.945 1663.82 278.972C1653.23 271.988 1660.8 260.593 1666.1 259.612C1671.39 258.622 1671.83 265.045 1678.94 263.287ZM1526.55 352.323C1529.3 352.486 1532.46 335.889 1540.11 340.082C1547.75 344.276 1546.18 356.316 1543.46 358.964C1540.76 361.623 1536.47 359.627 1538.1 356.652C1539.72 353.677 1561.69 349.861 1561.09 358.868C1560.49 367.876 1551.83 376.758 1544.89 374.568C1537.95 372.368 1537.73 367.586 1534.32 368.285C1530.9 368.984 1533.18 385.84 1522.66 382.179C1512.14 378.518 1516.39 359.528 1519.23 360.102C1522.08 360.676 1523.33 361.728 1522.84 364.551C1522.35 367.373 1516.24 372.871 1508.02 362.956C1499.8 353.04 1510.01 344.28 1515.31 344.921C1520.6 345.552 1519.34 351.905 1526.55 352.323ZM1758.58 190.375C1766.33 190.913 1759.05 200.915 1764.57 202.676C1768.45 203.902 1773.46 206.437 1772.06 212.755C1770.95 217.774 1757.79 225.264 1751.18 212.241C1747.77 205.525 1758.2 207.051 1757.9 210.21C1757.65 212.901 1753.56 221.86 1748.45 221.345C1743.33 220.833 1738.39 217.069 1740.57 210.33C1742.05 205.752 1747.49 206.997 1748.45 199.143C1749.27 192.313 1751.94 189.917 1758.58 190.375ZM1564.59 208.041C1568.75 204.092 1572.05 216.604 1574.15 216.613C1577.4 216.612 1578.51 205.732 1583.23 215.927C1587.95 226.121 1580.25 231.941 1577.81 229.206C1575.38 226.47 1577.74 224.488 1578.59 225.093C1579.46 225.696 1585.11 239.136 1579.54 245.474C1573.98 251.823 1564.48 233.765 1566.94 233.197C1569.4 232.63 1573.21 233.949 1569.9 236.8C1566.58 239.652 1560.76 238.765 1560.41 229.286C1560.07 219.807 1565.56 225.846 1566.27 222.101C1566.98 218.356 1559.42 212.936 1564.59 208.041Z" stroke="black" stroke-miterlimit="10"/>
</g>
<defs>
<clipPath id="clip0_4963_888">
<rect width="1920" height="1504" fill="white"/>
</clipPath>
</defs>
</svg>
