<svg width="1920" height="1714" viewBox="0 0 1920 1714" fill="none" xmlns="http://www.w3.org/2000/svg">
<path d="M1067 211.178C1067 211.178 1091.29 222.524 1085.97 276.848C1080.65 331.173 1017.69 433.939 1009.71 444.214C1001.73 454.49 970.251 484.831 929.011 479.445C887.771 474.059 866.531 446.124 866.531 446.124M878.931 322.508C869.011 311.626 830.791 263.449 877.571 212.248C930.781 154.006 976.631 226.475 976.631 226.475M1001.33 208.937C1001.24 197.061 1003.68 173.474 1022.64 160.936M1022.64 160.936C1023.19 160.572 1023.75 160.219 1024.33 159.877C1052.27 143.244 1081.09 157.437 1092.17 166.731C1103.26 176.035 1109.91 184.567 1113.9 189.6C1117.89 194.632 1135.18 228.881 1141.39 236.22C1147.59 243.56 1187.94 278.801 1194.59 315.5C1201.24 352.209 1184.4 371.292 1179.52 381.568C1174.64 391.843 1155.58 414.359 1135.18 425.12C1114.78 435.892 1081.53 435.892 1058.92 425.12C1045.99 418.973 1037.98 411.059 1033.49 405.408M1022.64 160.936C1001.62 117.053 1016.79 64.9473 1016.79 64.9473M1014.47 104.592C1014.47 104.592 1037.19 79.1409 1076.65 85.9949C1116.11 92.8489 1130.91 122.208 1130.91 122.208C1130.91 122.208 1115.43 118.786 1087.62 133.951C1059.81 149.116 1034 133.465 1028.72 130.53C1023.45 127.594 1015.49 116.788 1017.92 112.649C1020.35 108.511 1034.09 99.703 1060.69 102.639C1087.29 105.575 1105.47 116.833 1105.47 116.833M1037.63 107.031C1037.63 107.031 1042.51 115.839 1057.58 120.243C1072.65 124.647 1082.41 123.664 1082.41 123.664M1060.69 102.628C1060.69 102.628 1072.66 92.8381 1082.42 93.8205M1060.24 204.423C1080.57 220.67 1077.98 247.49 1073.54 265.105C1069.1 282.72 1040.73 343.899 1033.19 359.549C1025.65 375.211 991.071 428.056 982.201 436.875C973.331 445.682 932.981 491.199 881.551 458.408C830.121 425.617 852.301 367.871 855.401 357.595C858.501 347.32 887.321 311.107 900.181 296.914C913.041 282.72 965.361 235.25 980.881 223.021C996.401 210.792 1034.53 183.861 1060.24 204.423ZM973.781 307.189C985.751 317.465 1007.92 339.98 985.311 379.614C962.701 419.248 927.671 400.662 918.361 394.294C909.051 387.925 878.011 355.631 918.361 315.014C942.691 290.523 973.781 307.189 973.781 307.189Z" stroke="black" stroke-miterlimit="10"/>
</svg>
