<svg width="1920" height="902" viewBox="0 0 1920 902" fill="none" xmlns="http://www.w3.org/2000/svg">
<path d="M921.824 163.302C921.824 163.302 919.485 159.825 934.151 143.067C948.817 126.309 978.625 142.07 978.625 142.07C978.625 142.07 956.314 123.773 934.125 122.503C911.935 121.234 896.191 149.727 893.614 157.605C891.034 165.473 897.438 163.76 904.977 157.715C912.516 151.67 901.476 113.81 901.476 113.81C901.476 113.81 888.364 130.924 873.915 154.272C859.466 177.62 851.361 181.023 845.285 186.999C839.217 192.972 826.313 197.785 819.37 195.731C812.428 193.677 795.745 173.938 769.047 171.996C742.349 170.054 719.906 180.233 719.906 180.233C719.906 180.233 744.026 180.862 756.07 187.307C768.114 193.752 765.495 205.138 772.694 206.651C779.893 208.164 788.466 193.696 776.413 194.46C764.36 195.224 730.821 193.633 720.015 208.212C709.209 222.791 686.923 242.995 668.855 243.832C668.855 243.832 710.023 245.37 727.93 229.661C745.837 213.953 772.969 222.195 772.969 222.195L810.797 217.919C810.797 217.919 828.05 214.267 824.535 189.627C821.02 164.987 823.262 144.972 828.491 144.089L844.477 146.58C844.477 146.58 832.357 157.337 842.718 180.44C853.079 203.544 856.285 201.052 856.285 201.052M840.169 211.497C854.751 205.478 880.22 175.247 908.565 165.686C946.065 153.041 995.917 171.929 1015.51 236.453C1033.55 295.873 997.128 367.731 915.425 395.36C821.384 427.156 756.134 406.576 723.207 334.511C697.775 278.826 723.259 238.195 750.994 227.102C776.64 216.842 812.719 222.829 840.169 211.497ZM780.114 240.045C807.163 229.618 829.774 237.971 841.551 259.61C848.827 272.983 865.694 318.879 870.759 334.24C875.824 349.602 879.339 375.575 846.526 384.43C816.616 392.494 794.872 385.023 775.246 363.798C755.769 342.74 736.109 305.988 743.582 278.08C751.054 250.172 764.955 245.893 780.114 240.045ZM912.087 192.763C927.088 187.708 958.091 183.145 970.858 206.414C983.616 229.687 997.806 274.373 988.626 301.534C979.449 328.703 953.546 362.446 918.03 348.954C891.162 338.748 867.373 241.916 873.881 225.3C883.217 201.473 912.087 192.763 912.087 192.763ZM804.381 252.006C800.462 254.087 797.274 258.882 804.789 267.239C813.278 276.669 821.141 276.616 819.358 266.269C817.234 253.884 809.984 249.032 804.381 252.006ZM899.437 218.397C894.972 219.003 890.115 222.387 893.818 232.719C897.999 244.38 905.34 246.991 907.764 236.766C910.659 224.507 905.821 217.529 899.437 218.397ZM942.814 212.774C938.51 211.51 932.546 212.582 931.001 223.369C929.256 235.546 934.619 240.876 941.622 232.673C950.023 222.823 948.967 214.58 942.814 212.774ZM971.449 258.812C971.575 254.623 968.822 249.598 957.217 251.209C944.115 253.017 940.075 259.275 950.514 263.25C963.029 268.016 971.272 264.804 971.449 258.812ZM965.894 300.753C968.362 297.246 968.843 291.625 958.048 287.365C945.863 282.547 938.896 285.921 945.548 294.381C953.525 304.516 962.368 305.771 965.894 300.753ZM941.562 336.336C945.383 334.111 948.351 329.191 940.471 321.126C931.568 312.023 923.72 312.387 925.96 322.649C928.638 334.955 936.098 339.529 941.562 336.336ZM770.351 272.92C767.126 275.852 765.351 281.238 774.893 287.569C785.67 294.718 793.258 292.822 788.725 283.224C783.303 271.734 774.967 268.729 770.351 272.92ZM766.803 324.066C767.636 328.179 771.484 332.548 782.455 328.694C794.838 324.343 797.358 317.433 786.246 315.6C772.919 313.407 765.603 318.173 766.803 324.066ZM796.045 360.047C799.452 362.799 805.383 364.009 811.414 354.681C818.226 344.143 815.581 337.275 805.638 342.234C793.737 348.17 791.178 356.12 796.045 360.047ZM834.015 372.742C838.033 374.636 844.109 374.474 847.515 364.067C851.36 352.307 846.998 346.245 838.649 353.293C828.645 361.738 828.25 370.025 834.015 372.742Z" stroke="black" stroke-miterlimit="10"/>
</svg>
