<svg width="1920" height="2548" viewBox="0 0 1920 2548" fill="none" xmlns="http://www.w3.org/2000/svg">
<path d="M-271 2267.42C-271 2267.42 -160.785 2257.16 -17.5772 2298.89C125.63 2340.61 172.398 2392.75 172.398 2392.75M-154.793 2265.3C-154.793 2265.3 -144.317 2250.33 -134.797 2242.62C-125.276 2234.91 -105.499 2220.96 -100.749 2216.74C-96.0062 2212.52 -80.8094 2187.38 -77.4868 2191.44C-74.1642 2195.51 -81.094 2213.67 -88.1231 2219.2C-95.1523 2224.73 -100.364 2227.35 -109.238 2235.05C-118.112 2242.76 -130.92 2259.09 -133.657 2260.64C-138.128 2263.17 -141.688 2258.91 -137.162 2255.56C-132.636 2252.21 -122.105 2252.43 -116.116 2250.72C-110.128 2249.01 -47.8684 2222.22 -40.4052 2217.57C-32.9421 2212.92 -12.1797 2211.45 -35.4966 2227.45C-58.8135 2243.45 -98.6694 2251.96 -119.371 2262.52C-140.069 2273.09 -140.069 2273.09 -140.069 2273.09M-163.406 2270.32C-163.224 2270.58 -112.594 2286.63 -81.8726 2310.42C-51.1514 2334.22 -86.1147 2316.96 -92.2585 2313.77C-98.4098 2310.57 -115.841 2303.03 -131.816 2295.78C-140.971 2291.63 -149.659 2289.29 -156.086 2287.67M-156.086 2287.67C-160.405 2280.52 -161.287 2275.96 -165.948 2276.93C-171.362 2278.06 -169.572 2282.75 -165.96 2284.77C-164.414 2285.63 -160.873 2286.45 -156.086 2287.67ZM-156.086 2287.67C-152.948 2292.86 -149.457 2299.2 -146.02 2305.05C-142.891 2310.38 -139.809 2315.3 -137.091 2318.6C-127.267 2330.5 -86.64 2357.2 -78.1841 2365.03C-69.7314 2372.87 -35.54 2401.03 -38.1887 2405.54C-40.8374 2410.04 -52.8642 2398.28 -57.3513 2394.51C-61.1451 2391.31 -121.63 2343.84 -150.083 2316.17M-150.083 2316.17C-155.284 2311.1 -159.413 2306.72 -161.929 2303.37C-172.307 2289.58 -178.693 2276.38 -181.96 2268.62M-150.083 2316.17C-147.106 2320.7 -142.617 2326.85 -135.926 2334.72C-119.484 2354.03 -76.7331 2386.97 -72.9391 2390.01C-69.1408 2393.06 -50.1082 2414.98 -77.7192 2396.12C-105.334 2377.26 -131.172 2352.15 -137.886 2345.18C-144.613 2338.21 -153.061 2330.38 -163.315 2312.37C-173.564 2294.37 -171.555 2290.23 -171.555 2290.23M-152.013 2294.62C-152.013 2294.62 -82.8446 2333.36 -70.9635 2347.45C-59.0791 2361.53 -49.1462 2373 -76.6532 2353.7C-104.16 2334.4 -122.016 2320.77 -127.509 2317.58C-133.002 2314.39 -146.023 2305.06 -146.023 2305.06M-123.4 2264.57C-110.386 2266.96 -78.014 2272.77 -64.8979 2273.8C-48.2865 2275.1 -24.1839 2278.38 -12.519 2276.94C-0.854175 2275.49 25.379 2271.26 -5.84186 2269.4C-37.0594 2267.53 -66.3612 2264.94 -76.7105 2263.79C-80.3492 2263.38 -84.5741 2262.04 -88.6206 2260.73M-88.6206 2260.73C-96.0612 2258.34 -102.853 2256.08 -104.148 2260.14C-104.836 2262.28 -98.1464 2262.02 -88.6206 2260.73ZM-88.6206 2260.73C-70.4092 2258.27 -41.8256 2252.03 -34.5791 2251.55C-23.5419 2250.81 10.6526 2246.87 22.2695 2244.68C33.8864 2242.49 50.6645 2239.55 50.6645 2239.55C50.6645 2239.55 78.8346 2229.38 48.4084 2230.42C17.9746 2231.47 -59.2466 2245.18 -59.2466 2245.18L-76.0057 2246.16L-76.0177 2246.16M-45.9164 2336.2C-35.5211 2349.21 -17.0011 2372.92 1.76312 2399.4C30.1397 2439.47 23.8202 2432.65 40.655 2454.72C57.4777 2476.78 49.6231 2457.03 45.6841 2451.08C41.7493 2445.13 31.0659 2426.26 23.1997 2414.35C18.9523 2407.93 6.22676 2390.72 -7.16354 2372.73M-45.9164 2336.2C-46.6469 2334.94 -47.4241 2333.62 -48.2534 2332.18C-64.3168 2304.45 -71.1003 2290.8 -71.1003 2290.8C-71.1003 2290.8 -57.1745 2293.26 -26.7464 2319.09C3.67842 2344.93 12.6009 2356.97 17.4377 2362.78C22.2822 2368.59 36.394 2393.71 13.0874 2369.76C-10.2149 2345.81 -28.8395 2330.29 -37.1559 2324.69C-39.8647 2322.87 -43.5571 2320.39 -47.196 2317.72M-45.9164 2336.2C-32.4187 2359.24 -33.8978 2354.02 -12.7676 2387.21C9.5113 2422.21 -14.8066 2396.22 -19.1011 2390.85C-23.4033 2385.48 -43.2991 2356.58 -56.3263 2332.34C-66.9735 2312.51 -77.4046 2290.52 -80.8522 2283.15M-7.16354 2372.73C-7.16788 2372.72 -7.17224 2372.71 -7.17224 2372.71M-7.16354 2372.73C-0.881026 2377.09 8.53319 2384.25 17.127 2393.14C31.7081 2408.23 43.5464 2425.8 65.8418 2447.72C88.1371 2469.64 74.1935 2448.15 70.1504 2442.64C66.1074 2437.12 28.7259 2391.39 7.33145 2373.43C-5.07247 2363.02 -15.1887 2356.81 -21.5052 2353.45M-7.16354 2372.73C-7.16354 2372.73 -7.17986 2372.71 -7.17224 2372.71M-7.17224 2372.71C-11.9864 2366.23 -16.8919 2359.65 -21.5052 2353.45M-21.5052 2353.45L-21.5095 2353.44C-27.8865 2344.86 -33.728 2336.99 -38.0914 2331.01C-41.8043 2325.92 -44.7728 2321.49 -47.196 2317.72M-47.196 2317.72C-55.3928 2304.89 -57.1755 2299.7 -59.6886 2302.89C-61.9991 2305.81 -54.7227 2312.17 -47.196 2317.72ZM-28.332 2295.83C-21.3672 2294.39 -9.02091 2291.9 3.81906 2289.57L3.82669 2289.57M3.82669 2289.57C14.4532 2287.63 25.4027 2285.81 33.9086 2284.82C33.9086 2284.82 33.9086 2284.82 33.9163 2284.81M3.82669 2289.57C14.3996 2283.05 37.5367 2269.72 67.5793 2257.86C109.244 2241.41 136.58 2251.85 140.672 2252.87C144.759 2253.88 153.976 2258.67 139.254 2258.53C124.525 2258.4 114.022 2254.97 84.2637 2263.9C62.733 2270.36 43.1258 2279.99 33.9163 2284.81M33.9163 2284.81C36.37 2284.53 38.6158 2284.31 40.595 2284.18C62.0113 2282.71 132.774 2286.14 144.966 2287.73C157.158 2289.31 187.451 2301.78 144.333 2298.91C101.207 2296.04 79.0784 2295.43 71.389 2294.36C69.5953 2294.12 65.2247 2294.37 59.5873 2294.84M59.5873 2294.84C50.7075 2295.56 38.6993 2296.78 28.7774 2297.33M59.5873 2294.84C79.3936 2300.48 118.225 2311.3 143.51 2316.92C178.67 2324.74 166.646 2332.02 139.986 2327.53C120.226 2324.22 59.6025 2304.68 28.7774 2297.33M28.7774 2297.33C17.9732 2297.95 9.6255 2297.76 10.3904 2295.28C10.8887 2293.68 18.0188 2294.77 28.7774 2297.33ZM11.5439 2307.93C15.059 2316.05 21.7672 2330.73 28.6461 2341.42C38.6507 2356.96 77.3896 2422.45 91.9038 2441.17C106.418 2459.89 113.183 2464.99 97.9859 2437.68C82.789 2410.37 56.6813 2371.62 50.0069 2360.14C43.3292 2348.67 33.9399 2334.27 33.9399 2334.27C33.9399 2334.27 113.141 2407.88 117.66 2412.38C122.179 2416.88 155.568 2438.03 118.771 2402.42C81.9774 2366.8 60.55 2346.62 44.0361 2331.09C36.6984 2324.19 30.3621 2317.75 25.5786 2312.72M108.052 2348.29C115.754 2367.39 136.675 2418.42 149.967 2441.99C166.492 2471.32 186.354 2502.1 188.588 2505.3C190.831 2508.49 212.835 2529.83 193.013 2499.77C173.191 2469.72 158.865 2450.69 142.859 2416.22C132.296 2393.44 122.392 2367.86 116.878 2353.1M124.904 2357.72C130.433 2353.72 144.943 2344.47 166.75 2339.43C195.08 2332.86 233.914 2327.75 255.949 2325.55C277.984 2323.35 282.927 2331.35 253.256 2334.56C223.59 2337.78 193.003 2343.76 179.579 2346.24C166.159 2348.72 151.277 2353.52 144.618 2355.85C140.327 2357.35 135.242 2360.25 132.164 2362.11C138.383 2373.98 192.264 2465.49 211.695 2487.56C231.135 2509.62 223.197 2493.65 219.509 2487.55C215.833 2481.46 200.592 2457.35 183.118 2432.68C165.639 2407.99 149.401 2379.24 148.064 2375.9C147.405 2374.26 147.539 2373.54 148.955 2373.28C150.398 2372.99 153.184 2373.17 157.839 2373.27C161.681 2373.36 167.918 2373.55 175.345 2373.89M175.345 2373.89C185.657 2374.36 198.247 2375.11 209.824 2376.29C229.721 2378.31 254.711 2380.75 285.74 2392.06C316.769 2403.37 302.64 2391.32 288.248 2384.65C273.856 2377.98 258.125 2373.19 230.894 2369.53C203.663 2365.86 168.338 2364.26 156.654 2365C150.812 2365.36 144.826 2366.39 140.273 2367.32M175.345 2373.89C184.525 2378.96 199.707 2387.04 210.814 2391.39C227.811 2398.06 253.455 2405.74 271.715 2414.3C289.967 2422.86 309.806 2439.84 312.233 2441.43C314.652 2443.03 327.575 2459.86 307.739 2448.12C287.891 2436.36 289.3 2435.93 267.497 2424.18C252.552 2416.13 219.191 2402.93 192.48 2393.43M162.339 2383.53C169.37 2385.48 180.221 2389.06 192.48 2393.43M192.48 2393.43C202.244 2399.79 214.719 2408.93 226.12 2420.22C249.379 2443.27 272.683 2469.35 292.857 2494.86C313.032 2520.38 289.462 2503.76 285.251 2499.23C281.048 2494.69 265.367 2474.3 238.42 2444.97C223.415 2428.65 203.681 2416.83 190.187 2408.5M190.187 2408.5C185.123 2399.3 180.348 2389.75 175.354 2394.76C172.653 2397.47 179.447 2401.87 190.187 2408.5ZM190.187 2408.5C191.3 2410.53 192.423 2412.53 193.565 2414.36C199.922 2424.52 210.894 2441.36 221.677 2454.21C232.46 2467.05 244.602 2478.38 262.406 2496.53C280.218 2514.67 264.71 2506.41 259.723 2502.91C254.733 2499.44 243.708 2492.33 216.979 2459.52C190.251 2426.71 169.105 2394.64 169.105 2394.64" stroke="#233000" stroke-miterlimit="10"/>
<path d="M2136.76 30.4479C2136.76 30.4479 1994.3 59.519 1827.37 166.753C1660.45 273.987 1618.65 357.607 1618.65 357.607M1989.43 72.0656C1989.43 72.0656 1971.27 57.1703 1956.71 51.0723C1942.15 44.9742 1912.59 34.9048 1905.21 31.3918C1897.83 27.8814 1870.36 1.94892 1867.51 8.34375C1864.65 14.7386 1879.39 35.0171 1890.09 39.3117C1900.78 43.6064 1908.22 44.9266 1921.96 51.2704C1935.71 57.6141 1957.26 73.3373 1961.22 74.2478C1967.7 75.7392 1970.78 69.0007 1963.97 66.4994C1957.15 63.998 1943.93 68.2885 1935.81 68.4155C1927.69 68.5425 1840.29 58.4746 1829.34 55.4473C1818.39 52.42 1791.7 58.4838 1826.41 69.7815C1861.11 81.0793 1914.21 76.6361 1943.82 82.0658C1973.42 87.5081 1973.42 87.5081 1973.42 87.5081M2001.95 75.1189C2001.81 75.524 1943.22 115.063 1912.31 156.799C1881.4 198.536 1919.82 163.438 1926.52 157.062C1933.23 150.688 1952.73 134.531 1970.5 119.291C1980.68 110.563 1990.87 104.295 1998.44 99.8005M1998.44 99.8005C2001.53 89.1302 2001.14 83.0456 2007.34 82.4917C2014.55 81.8558 2013.83 88.4506 2009.95 92.3812C2008.28 94.0603 2004.08 96.4429 1998.44 99.8005ZM1998.44 99.8005C1996.2 107.547 1993.88 116.873 1991.48 125.565C1989.29 133.485 1987.02 140.869 1984.68 146.069C1976.22 164.835 1933.77 214.008 1925.68 227.112C1917.6 240.23 1883.75 288.793 1888.58 293.468C1893.41 298.144 1904.71 278.717 1909.12 272.254C1912.86 266.772 1973.5 183.806 2000.27 138.048M2000.27 138.048C2005.16 129.677 2008.93 122.568 2011 117.383C2019.54 96.0312 2023.24 76.9352 2024.8 65.9041M2000.27 138.048C1998.01 144.901 1994.38 154.38 1988.53 166.856C1974.16 197.487 1931.09 255.35 1927.31 260.634C1923.52 265.931 1906.74 300.843 1935.36 266.523C1963.97 232.19 1988.29 190.662 1994.46 179.312C2000.65 167.952 2008.72 154.846 2015.72 128.211C2022.71 101.589 2018.81 97.1328 2018.81 97.1328M1995.6 110.13C1995.6 110.13 1921.11 185.373 1910.77 207.682C1900.42 229.977 1891.67 248.238 1920.01 213.401C1948.35 178.564 1966.38 154.551 1972.26 148.433C1978.13 142.315 1991.49 125.58 1991.49 125.58M1949.57 83.108C1933.94 91.093 1895.01 110.764 1878.8 117.057C1858.27 125.027 1828.94 138.357 1813.75 140.984C1798.55 143.611 1764.05 148.266 1802.83 134.02C1841.61 119.759 1877.73 105.323 1890.4 99.922C1894.86 98.026 1899.75 94.7165 1904.42 91.53M1904.42 91.53C1913.02 85.6696 1920.85 80.238 1923.82 84.8604C1925.4 87.3055 1916.87 89.5289 1904.42 91.53ZM1904.42 91.53C1880.63 95.3672 1842.5 98.3799 1833.2 100.54C1819.03 103.821 1774.59 111.877 1759.2 113.543C1743.82 115.21 1721.68 117.895 1721.68 117.895C1721.68 117.895 1682.78 115.796 1721.52 105.512C1760.26 95.2314 1862.23 83.0974 1862.23 83.0974L1883.7 77.9549L1883.71 77.9448M1875.45 203.028C1866.63 223.412 1851.08 260.383 1836.15 300.952C1813.57 362.329 1819.29 351.311 1805.33 385.574C1791.39 419.828 1794.78 391.916 1797.78 382.9C1800.79 373.897 1808.04 346.007 1814.03 327.986C1817.27 318.268 1827.65 291.702 1838.61 263.891M1875.45 203.028C1875.96 201.169 1876.5 199.198 1877.07 197.074C1888.19 155.961 1892.24 136.152 1892.24 136.152C1892.24 136.152 1875.48 144.56 1845.61 188.748C1815.75 232.952 1808.47 251.546 1804.28 260.721C1800.09 269.894 1790.57 306.975 1812.07 267.864C1833.57 228.767 1851.95 202.085 1860.6 191.852C1863.41 188.518 1867.25 183.978 1870.96 179.221M1875.45 203.028C1866.02 237.247 1866.16 230.092 1850.46 280.033C1833.9 332.681 1856 290.618 1859.65 282.205C1863.31 273.795 1878.87 229.748 1887.31 194.193C1894.2 165.115 1900.1 133.385 1902.02 122.771M1838.61 263.891C1838.61 263.879 1838.61 263.866 1838.61 263.866M1838.61 263.891C1832.12 271.792 1822.6 284.411 1814.69 298.911C1801.28 323.51 1792.14 350.196 1771.24 386.353C1750.34 422.511 1760.84 390.074 1764.13 381.576C1767.41 373.077 1799.48 301.122 1820.55 270.306C1832.76 252.439 1843.48 240.755 1850.34 234.098M1838.61 263.891C1838.61 263.891 1838.62 263.868 1838.61 263.866M1838.61 263.866C1842.55 253.861 1846.57 243.69 1850.34 234.098M1850.34 234.098L1850.34 234.085C1855.56 220.835 1860.33 208.676 1863.86 199.466C1866.87 191.633 1869.15 184.904 1870.96 179.221M1870.96 179.221C1877.07 159.91 1877.61 152.69 1881.83 155.747C1885.71 158.551 1878.63 169.354 1870.96 179.221ZM1839.94 158.8C1830.67 159.64 1814.27 161.198 1797.3 163.153L1797.29 163.15M1797.29 163.15C1783.24 164.759 1768.83 166.64 1757.77 168.623C1757.77 168.623 1757.77 168.623 1757.75 168.62M1797.29 163.15C1781.8 158.957 1748.21 150.964 1706.38 147.443C1648.38 142.57 1617.33 166.164 1612.51 169.009C1607.68 171.842 1597.63 181.399 1616.17 175.614C1634.71 169.832 1646.83 161.495 1687.32 161.42C1716.62 161.37 1744.54 166.042 1757.75 168.62M1757.75 168.62C1754.56 169.195 1751.66 169.784 1749.12 170.366C1721.61 176.673 1633.45 207.975 1618.59 214.627C1603.73 221.28 1569.63 248.561 1623.08 228.497C1676.55 208.436 1704.27 199.229 1713.62 194.955C1715.81 193.97 1721.41 192.622 1728.67 191.058M1728.67 191.058C1740.11 188.58 1755.67 185.547 1768.37 182.464M1728.67 191.058C1705.54 205.72 1660.12 234.181 1630.07 250.916C1588.28 274.177 1605.86 278.783 1638.02 262.959C1661.86 251.24 1731.9 203.487 1768.37 182.464M1768.37 182.464C1782.21 179.117 1792.68 175.706 1790.9 172.866C1789.74 171.038 1781.1 175.122 1768.37 182.464ZM1793.62 189.267C1791.86 200.85 1788.24 221.932 1783.09 238.04C1775.59 261.461 1748.33 358.868 1736.19 388.022C1724.06 417.175 1717.21 426.185 1727.37 385.935C1737.53 345.686 1757.68 286.831 1762.31 269.802C1766.96 252.789 1774.05 231.041 1774.05 231.041C1774.05 231.041 1698.41 354.111 1694.19 361.512C1689.98 368.913 1654.82 408.318 1689.5 349.362C1724.17 290.39 1744.55 256.768 1760.26 230.878C1767.24 219.374 1773.11 208.829 1777.49 200.655M1685.16 276.971C1681.75 304.014 1672.19 376.375 1663.2 411.188C1652.03 454.494 1637.13 500.904 1635.36 505.789C1633.59 510.671 1612.86 545.979 1627.96 500.504C1643.05 455.029 1654.84 425.556 1663.66 375.954C1669.47 343.193 1673.53 307.133 1675.61 286.407M1667.01 295.296C1658.71 292.365 1637.35 286.213 1608.17 288.165C1570.26 290.684 1519.57 299.033 1491.04 304.66C1462.51 310.287 1458.91 322.259 1497.41 315.002C1535.91 307.758 1576.48 303.647 1594.23 301.652C1611.98 299.67 1632.35 300.058 1641.52 300.459C1647.43 300.712 1654.8 302.428 1659.3 303.612C1655.37 320.952 1617.59 456.956 1600.35 492.212C1583.11 527.466 1587.85 504.285 1590.49 495.183C1593.12 486.091 1604.39 449.865 1618.3 412.068C1632.2 374.258 1643.2 331.788 1643.79 327.064C1644.08 324.74 1643.67 323.887 1641.8 324.095C1639.88 324.28 1636.43 325.576 1630.59 327.478C1625.77 329.049 1617.96 331.668 1608.7 334.928M1608.7 334.928C1595.84 339.449 1580.21 345.2 1565.99 351.101C1541.55 361.229 1510.82 373.844 1475.4 399.939C1439.98 426.033 1453.83 405.443 1469.79 391.544C1485.75 377.644 1504.02 365.606 1537.17 350.601C1570.32 335.596 1614.36 320.11 1629.35 316.583C1636.84 314.819 1644.73 313.827 1650.78 313.265M1608.7 334.928C1598.79 344.823 1582.3 360.803 1569.72 370.532C1550.48 385.422 1520.65 404.894 1500.44 422.651C1480.23 440.41 1460.8 469.394 1458.27 472.329C1455.74 475.266 1444.99 501.439 1466.14 479.054C1487.31 456.658 1485.39 456.643 1509.02 433.516C1525.22 417.653 1562.96 388.279 1593.53 366.114M1628.29 342.136C1620.06 347.273 1607.56 355.93 1593.53 366.114M1593.53 366.114C1583.31 377.862 1570.58 394.147 1559.92 412.741C1538.18 450.692 1517.39 492.48 1500.35 532.368C1483.32 572.255 1507.57 542.299 1511.39 534.977C1515.2 527.652 1528.25 495.939 1552.57 448.659C1566.12 422.35 1587.12 399.916 1601.4 384.264M1601.4 384.264C1604.75 370.719 1607.62 356.849 1615.58 361.267C1619.88 363.652 1612.76 371.802 1601.4 384.264ZM1601.4 384.264C1600.66 387.239 1599.9 390.196 1599.07 392.934C1594.4 408.188 1586.11 433.613 1576.75 453.934C1567.38 474.256 1555.8 493.176 1539.32 522.858C1522.84 552.537 1539.68 536.202 1544.82 529.896C1549.97 523.606 1561.53 510.435 1584.43 458.846C1607.32 407.256 1623.42 358.737 1623.42 358.737" stroke="#233000" stroke-miterlimit="10"/>
</svg>
