<svg width="1920" height="2186" viewBox="0 0 1920 2186" fill="none" xmlns="http://www.w3.org/2000/svg">
<path d="M996.593 184.812C996.593 184.812 1023.75 150.102 1068.34 152.082C1112.93 154.062 1152.79 181.472 1165.15 226.942C1177.17 271.152 1166.06 310.032 1144.23 332.172C1123.06 353.622 1078.94 355.622 1078.94 355.622M1063.91 448.482C1063.91 448.482 1080.98 449.922 1091.4 476.302C1104.73 510.052 1073.8 543.142 1073.8 543.142C1074.82 521.862 1046.17 518.532 1023.56 507.232C1000.95 495.932 1007.6 462.002 1016.91 446.212C1026.22 430.422 1045.75 423.902 1057.37 428.752C1067.46 432.962 1059.25 450.962 1047.84 441.872C1030.86 428.342 1036.87 398.822 1112.68 377.922C1188.49 357.022 1213.11 439.382 1213.11 439.382C1213.11 439.382 1202.03 433.622 1176.31 439.822C1150.59 446.032 1156.36 452.232 1125.32 453.572C1094.28 454.902 1058.48 416.452 1058.48 416.452M1058.48 416.462C1058.48 416.462 1157.18 380.632 1172.12 407.332C1187.06 434.032 1099.14 393.902 1099.14 393.902M1031.98 456.072C1031.98 456.072 1063.24 488.922 1067.23 495.572C1071.22 502.222 1065.23 513.192 1057.59 508.212C1049.94 503.222 1058.49 463.032 1058.49 463.032M1109.17 416.942C1109.17 416.942 1125.41 420.362 1136.94 431.442M810.003 216.042C831.433 188.332 880.353 163.472 939.543 170.122C998.733 176.772 1034.65 200.712 1057.92 242.612C1081.2 284.512 1077.87 368.312 1054.59 400.902C1031.32 433.502 991.873 476.842 915.303 474.002C841.633 471.272 785.763 423.252 770.313 354.072C756.593 292.632 788.563 243.762 810.003 216.042ZM872.143 289.622C866.443 291.832 864.823 304.922 872.143 306.912C879.463 308.912 889.213 304.252 887.443 298.262C885.663 292.282 879.013 286.962 872.143 289.622ZM1016.44 256.412C1019.07 251.402 1012.96 243.002 1006.94 246.722C1000.91 250.442 996.903 259.502 1001.38 261.682C1005.87 263.862 1013.27 262.452 1016.44 256.412ZM879.463 339.482C877.063 344.602 883.543 352.712 889.393 348.722C895.243 344.732 898.843 335.502 894.263 333.532C889.693 331.562 882.353 333.312 879.463 339.482ZM1121.05 201.882C1118.82 203.642 1125.62 232.152 1118.31 234.242C1111 236.332 1110.22 228.132 1113.74 227.082C1117.26 226.042 1131.81 249.452 1134.89 248.512C1137.97 247.582 1133.72 216.342 1139.98 217.242C1146.25 218.132 1146.51 225.742 1142.59 226.192C1138.68 226.632 1123.28 200.122 1121.05 201.882ZM983.213 214.232C990.673 230.042 943.553 329.312 931.193 315.062C918.833 300.822 1000.96 227.822 1017.06 231.372C1033.16 234.922 1066.02 303.682 1050.7 316.742C1035.38 329.802 929.803 337.752 931.653 326.522C933.503 315.292 1035.38 316.202 1041.59 332.752C1047.8 349.302 1046.54 359.592 1037.43 379.292C1028.32 398.992 1017.6 424.882 995.893 420.352C974.193 415.822 918.193 344.882 930.833 337.022C943.473 329.162 978.203 412.442 966.763 435.772C957.233 455.222 878.933 461.042 871.603 431.542C863.033 397.042 910.123 333.502 917.883 337.672C925.643 341.842 880.193 420.272 845.613 416.942C811.033 413.602 794.733 352.892 803.323 330.712C811.913 308.532 910.013 315.222 912.233 325.712C914.453 336.192 809.383 310.402 801.343 298.162C793.303 285.922 829.313 211.172 862.743 216.172C896.173 221.172 931.883 311.632 922.003 316.812C912.123 321.992 868.043 222.072 889.423 202.562C910.803 183.052 972.953 192.462 983.213 214.232Z" stroke="black" stroke-miterlimit="10"/>
</svg>
