<svg width="1920" height="1510" viewBox="0 0 1920 1510" fill="none" xmlns="http://www.w3.org/2000/svg">
<rect width="1920" height="1510" fill="#EBF0E4"/>
<path d="M421.71 227.073C421.71 227.073 420.82 193.503 442.99 182.626C465.16 171.749 468.71 172.73 468.71 172.73C468.71 172.73 473.14 182.626 470.48 186.401C467.82 190.187 466.1 185.399 466.1 184.514C466.1 183.629 471.42 174.767 485.05 174.767C498.68 174.767 505.83 182.04 505.83 182.04C505.83 182.04 505.66 189.483 501.84 192.853C501.84 192.853 507.33 185.58 516.14 186.113C516.14 186.113 528.44 196.926 532.6 204.903C532.6 204.903 521.96 220.685 503 222.456C503 222.456 512.64 224.407 515.14 227.062C515.14 227.062 481.72 240.008 475.07 233.973C468.42 227.937 478.06 228.118 480.89 231.136C483.72 234.154 489.37 242.834 489.37 242.834C489.37 242.834 462.27 250.459 456.95 236.98L458.45 247.622C458.45 247.622 432.84 242.482 425.36 233.791C417.88 225.1 443.15 212.154 456.12 208.966C469.09 205.777 494.53 203.474 502.18 205.063M415.06 223.522C415.06 223.522 402.09 197.993 375.16 195.508C375.16 195.508 371.17 204.37 376.49 209.52C376.49 209.52 366.85 190.549 333.92 199.411C333.92 199.411 339.91 214.66 344.23 214.308C348.55 213.957 349.05 207.569 344.4 207.398C339.74 207.217 320.04 207.313 309.32 219.63C309.32 219.63 317.63 226.369 324.28 225.303C324.28 225.303 311.98 226.369 301.67 254.383C301.67 254.383 324.28 264.663 336.59 260.056C336.59 260.056 332.27 273.535 327.28 274.239C327.28 274.239 355.21 273.173 358.37 262.893C361.53 252.613 351.22 256.505 351.89 259.704C352.56 262.904 359.54 274.239 359.54 274.239C359.54 274.239 377.83 275.306 386.14 260.056C386.14 260.056 388.47 269.632 384.48 272.821C384.48 272.821 418.4 249.062 417.4 230.624C416.4 212.186 343.55 232.768 335.71 241M353.2 213.957C353.2 213.957 374.15 219.982 373.49 231.328M391.78 231.328C391.78 231.328 387.79 246.577 369.5 250.48M483.89 191.136C483.89 191.136 463.69 198.238 461.99 210.171M445.98 218.563C445.98 218.563 473.25 222.114 486.88 217.145M439.89 176.953C439.89 176.953 455.41 152.842 446.98 133.455C446.98 133.455 436.34 137.71 436.34 141.496C436.34 141.496 445.21 103.202 432.35 85.7025C432.35 85.7025 425.7 88.5391 424.81 94.6815C424.81 94.6815 405.74 64.8974 398.21 61.5809C398.21 61.5809 394 69.6215 395.55 79.3149C395.55 79.3149 383.8 53.3058 370.28 50C370.28 50 365.18 59.6934 366.95 66.3157C366.95 66.3157 344.78 50.4799 337.24 56.153C337.24 56.153 330.59 75.3053 337.24 85.2333C337.24 85.2333 332.58 83.3458 328.82 85.9478C328.82 85.9478 325.27 111.008 347 125.905C347 125.905 336.58 124.487 335.69 127.793C334.8 131.099 339.24 148.363 362.74 159.24C362.74 159.24 351.88 159.71 351.21 161.608C351.21 161.608 365.84 187.617 374.04 191.157M418.6 209.105C418.6 209.105 371.6 108.864 367.61 94.6815C363.62 80.4986 381.8 80.264 386.45 91.6103C394.82 112.032 386.45 147.457 386.45 147.457M423.26 141.73C423.26 141.73 422.59 176.015 409.29 185.228M409.29 253.317C409.29 253.317 392.77 272.106 394.77 288.774C394.77 288.774 409.73 290.907 413.39 286.289C413.39 286.289 398.43 295.514 398.76 326.002C398.76 326.002 408.07 327.068 413.39 319.614C413.39 319.614 398.76 334.149 411.06 361.459C411.06 361.459 421.36 354.015 421.7 346.21C421.7 346.21 416.38 364.295 434.01 383.8C434.01 383.8 439.66 381.315 441.66 372.453C441.66 372.453 451.64 389.825 466.6 396.564C466.6 396.564 481.56 384.503 480.23 358.622C480.23 358.622 487.55 363.592 494.53 365.01C494.53 365.01 503.84 347.639 496.53 324.935C496.53 324.935 504.84 331.323 508.5 329.19C508.5 329.19 503.18 291.6 485.89 284.509C485.89 284.509 495.87 285.575 497.86 282.738C497.86 282.738 487.18 250.47 467.27 247.633M423.26 239.134C423.26 239.134 438.36 252.25 449.49 295.514C460.62 338.777 464.61 351.893 460.29 357.929C455.97 363.965 444.66 363.602 445.33 354.378C446 345.154 446.66 310.048 459.3 302.253M445.98 261.475C445.98 261.475 433.01 271.051 430.02 289.489C427.03 307.926 428.02 316.799 428.02 316.799M454.3 150.475C454.3 150.475 462.95 129.67 482.23 120.573C482.23 120.573 487.55 122.706 488.22 135.524C488.22 135.524 498.2 107.926 521.47 105.793C544.75 103.66 548.74 110.048 548.74 110.048C548.74 110.048 560.38 132.08 548.74 127.921C537.1 123.762 556.06 112.181 566.03 112.885C576 113.588 605.27 122.343 619.9 141.73L613.25 157.566C613.25 157.566 631.21 150.475 636.53 151.893C641.85 153.311 668.45 189.014 670.45 209.105C670.45 209.105 650.5 234.175 622.56 234.879C622.56 234.879 619.23 244.796 625.22 251.888C625.22 251.888 566.14 259.214 579.11 246.449C592.08 233.685 581.11 267.02 585.32 274.25C585.32 274.25 547.74 282.386 532.61 266.785L526.79 280.968C526.79 280.968 506.58 278.377 493.54 261.464M639.85 195.508C592.63 179.555 539.42 193.162 539.42 193.162C539.42 193.162 544.08 222.093 583.32 228.491M595.29 156.148C595.29 156.148 574.01 166.119 571.35 191.637M532.61 138.414C532.61 138.414 518.14 146.721 511.49 172.709M356.53 179.438C356.53 179.438 323.61 145.036 292.89 160.627L298.17 170.757C298.17 170.757 279.04 157.875 249.36 164.956C219.68 172.037 219.02 187.393 219.02 187.393C219.02 187.393 229.36 206.695 233.53 196.67C237.7 186.646 211.1 195.711 203.85 199.55C196.59 203.389 178.13 219.406 174.17 232.192C174.17 232.192 195.94 233.461 196.6 236.02C197.26 238.579 163.62 247.537 159 281.139C159 281.139 170.21 293.615 188.68 298.734C188.68 298.734 203.85 296.943 205.17 291.44C205.17 291.44 204.29 303 200.99 306.092C200.99 306.092 208.9 314.73 234.19 318.356C234.19 318.356 265.5 310.454 256.1 305.068C246.7 299.683 253.88 323.272 248.7 329.873C248.7 329.873 263.87 341.389 294.65 336.271C294.65 336.271 309.16 331.792 314.44 321.128C314.44 321.128 316.42 334.351 314.66 338.83C314.66 338.83 364.13 329.446 367.87 303.842C371.61 278.238 372.49 308.108 372.49 311.733C372.49 311.733 395.79 299.15 397.99 286.343M296.67 241.725C296.67 241.725 230.61 242.194 183.61 276.244M202.67 228.491C202.67 228.491 246.57 234.079 259.87 253.509M293.57 253.509C293.57 253.509 290.47 270.571 266.97 293.743M262.53 199.646C262.53 199.646 274.94 197.278 293.57 199.646C312.19 202.013 316.18 208.123 316.18 208.123" stroke="black" stroke-miterlimit="10"/>
</svg>
